<mxfile host="app.diagrams.net" agent="Mozilla/5.0 (Windows NT 10.0; Win64; x64; rv:132.0) Gecko/20100101 Firefox/132.0" version="24.8.3">
  <diagram name="Page-1" id="uENUqXIsOQj-Sv-_rjTT">
    <mxGraphModel dx="875" dy="465" grid="1" gridSize="10" guides="1" tooltips="1" connect="1" arrows="1" fold="1" page="1" pageScale="1" pageWidth="827" pageHeight="1169" math="0" shadow="0">
      <root>
        <mxCell id="0" />
        <mxCell id="1" parent="0" />
        <mxCell id="HB7L-xhzdcljNeKlnPmA-1" value="&lt;div&gt;NAS &lt;br&gt;&lt;/div&gt;&lt;div&gt;S:\&lt;br&gt;&lt;/div&gt;" style="shape=cylinder3;whiteSpace=wrap;html=1;boundedLbl=1;backgroundOutline=1;size=15;" parent="1" vertex="1">
          <mxGeometry x="120" y="250" width="60" height="80" as="geometry" />
        </mxCell>
        <mxCell id="HB7L-xhzdcljNeKlnPmA-2" value="&lt;div&gt;JASMIN&lt;/div&gt;&lt;div&gt;s3 storage&lt;br&gt;&lt;/div&gt;" style="ellipse;shape=cloud;whiteSpace=wrap;html=1;" parent="1" vertex="1">
          <mxGeometry x="660" y="280" width="120" height="80" as="geometry" />
        </mxCell>
        <mxCell id="HB7L-xhzdcljNeKlnPmA-7" value="Task scheduler" style="rounded=1;whiteSpace=wrap;html=1;fillColor=#CCFFCC;" parent="1" vertex="1">
          <mxGeometry x="310" y="80" width="120" height="60" as="geometry" />
        </mxCell>
        <mxCell id="HB7L-xhzdcljNeKlnPmA-9" value="" style="edgeStyle=orthogonalEdgeStyle;rounded=0;orthogonalLoop=1;jettySize=auto;html=1;" parent="1" source="HB7L-xhzdcljNeKlnPmA-7" target="HB7L-xhzdcljNeKlnPmA-8" edge="1">
          <mxGeometry relative="1" as="geometry" />
        </mxCell>
        <mxCell id="HB7L-xhzdcljNeKlnPmA-11" value="Triggers" style="edgeLabel;html=1;align=center;verticalAlign=middle;resizable=0;points=[];" parent="HB7L-xhzdcljNeKlnPmA-9" vertex="1" connectable="0">
          <mxGeometry x="0.1381" y="-1" relative="1" as="geometry">
            <mxPoint as="offset" />
          </mxGeometry>
        </mxCell>
        <mxCell id="HB7L-xhzdcljNeKlnPmA-15" style="edgeStyle=orthogonalEdgeStyle;rounded=0;orthogonalLoop=1;jettySize=auto;html=1;entryX=0.049;entryY=0.49;entryDx=0;entryDy=0;entryPerimeter=0;" parent="1" source="9WAs7ZXHk1DkFdnagY5z-1" target="HB7L-xhzdcljNeKlnPmA-2" edge="1">
          <mxGeometry relative="1" as="geometry" />
        </mxCell>
        <mxCell id="HB7L-xhzdcljNeKlnPmA-16" value="&lt;div&gt;Write access&lt;/div&gt;" style="edgeLabel;html=1;align=center;verticalAlign=middle;resizable=0;points=[];" parent="HB7L-xhzdcljNeKlnPmA-15" vertex="1" connectable="0">
          <mxGeometry x="-0.0696" relative="1" as="geometry">
            <mxPoint as="offset" />
          </mxGeometry>
        </mxCell>
        <mxCell id="HB7L-xhzdcljNeKlnPmA-19" value="" style="edgeStyle=orthogonalEdgeStyle;rounded=0;orthogonalLoop=1;jettySize=auto;html=1;" parent="1" source="HB7L-xhzdcljNeKlnPmA-8" target="HB7L-xhzdcljNeKlnPmA-18" edge="1">
          <mxGeometry relative="1" as="geometry" />
        </mxCell>
        <mxCell id="HB7L-xhzdcljNeKlnPmA-20" value="Read/write access" style="edgeLabel;html=1;align=center;verticalAlign=middle;resizable=0;points=[];" parent="HB7L-xhzdcljNeKlnPmA-19" vertex="1" connectable="0">
          <mxGeometry x="-0.2753" y="-2" relative="1" as="geometry">
            <mxPoint as="offset" />
          </mxGeometry>
        </mxCell>
        <mxCell id="9WAs7ZXHk1DkFdnagY5z-2" value="" style="edgeStyle=orthogonalEdgeStyle;rounded=0;orthogonalLoop=1;jettySize=auto;html=1;" edge="1" parent="1" source="HB7L-xhzdcljNeKlnPmA-8" target="9WAs7ZXHk1DkFdnagY5z-1">
          <mxGeometry relative="1" as="geometry" />
        </mxCell>
        <mxCell id="9WAs7ZXHk1DkFdnagY5z-3" value="POSTS to " style="edgeLabel;html=1;align=center;verticalAlign=middle;resizable=0;points=[];" vertex="1" connectable="0" parent="9WAs7ZXHk1DkFdnagY5z-2">
          <mxGeometry x="0.0278" y="-4" relative="1" as="geometry">
            <mxPoint as="offset" />
          </mxGeometry>
        </mxCell>
        <mxCell id="HB7L-xhzdcljNeKlnPmA-8" value="Task runner" style="rounded=1;whiteSpace=wrap;html=1;fillColor=#CCFFCC;" parent="1" vertex="1">
          <mxGeometry x="310" y="250" width="120" height="60" as="geometry" />
        </mxCell>
        <mxCell id="HB7L-xhzdcljNeKlnPmA-12" value="&lt;h1 style=&quot;margin-top: 0px;&quot;&gt;Tasks&lt;/h1&gt;&lt;p&gt;* read TIFF images&lt;/p&gt;&lt;p&gt;* extract data and create metadata&lt;/p&gt;&lt;p&gt;* upload extracts to s3 storage&lt;br&gt;&lt;/p&gt;" style="text;html=1;whiteSpace=wrap;overflow=hidden;rounded=0;" parent="1" vertex="1">
          <mxGeometry x="480" y="10" width="230" height="120" as="geometry" />
        </mxCell>
        <mxCell id="HB7L-xhzdcljNeKlnPmA-13" value="" style="endArrow=classic;html=1;rounded=0;exitX=0;exitY=0.5;exitDx=0;exitDy=0;entryX=0.971;entryY=0.423;entryDx=0;entryDy=0;entryPerimeter=0;" parent="1" source="HB7L-xhzdcljNeKlnPmA-8" target="HB7L-xhzdcljNeKlnPmA-1" edge="1">
          <mxGeometry width="50" height="50" relative="1" as="geometry">
            <mxPoint x="460" y="290" as="sourcePoint" />
            <mxPoint x="510" y="240" as="targetPoint" />
          </mxGeometry>
        </mxCell>
        <mxCell id="HB7L-xhzdcljNeKlnPmA-14" value="Read access" style="edgeLabel;html=1;align=center;verticalAlign=middle;resizable=0;points=[];" parent="HB7L-xhzdcljNeKlnPmA-13" vertex="1" connectable="0">
          <mxGeometry x="-0.0066" relative="1" as="geometry">
            <mxPoint as="offset" />
          </mxGeometry>
        </mxCell>
        <mxCell id="HB7L-xhzdcljNeKlnPmA-18" value="Metadata storage" style="shape=cylinder3;whiteSpace=wrap;html=1;boundedLbl=1;backgroundOutline=1;size=15;fillColor=#CCFFCC;" parent="1" vertex="1">
          <mxGeometry x="420" y="390" width="60" height="80" as="geometry" />
        </mxCell>
        <mxCell id="HB7L-xhzdcljNeKlnPmA-22" style="edgeStyle=orthogonalEdgeStyle;rounded=0;orthogonalLoop=1;jettySize=auto;html=1;entryX=1;entryY=0.5;entryDx=0;entryDy=0;entryPerimeter=0;" parent="1" source="HB7L-xhzdcljNeKlnPmA-21" target="HB7L-xhzdcljNeKlnPmA-18" edge="1">
          <mxGeometry relative="1" as="geometry">
            <mxPoint x="500" y="450" as="targetPoint" />
            <Array as="points" />
          </mxGeometry>
        </mxCell>
        <mxCell id="HB7L-xhzdcljNeKlnPmA-24" value="Read access" style="edgeLabel;html=1;align=center;verticalAlign=middle;resizable=0;points=[];" parent="HB7L-xhzdcljNeKlnPmA-22" vertex="1" connectable="0">
          <mxGeometry x="-0.0122" relative="1" as="geometry">
            <mxPoint as="offset" />
          </mxGeometry>
        </mxCell>
        <mxCell id="HB7L-xhzdcljNeKlnPmA-25" value="" style="edgeStyle=orthogonalEdgeStyle;rounded=0;orthogonalLoop=1;jettySize=auto;html=1;" parent="1" source="HB7L-xhzdcljNeKlnPmA-21" target="HB7L-xhzdcljNeKlnPmA-2" edge="1">
          <mxGeometry relative="1" as="geometry" />
        </mxCell>
        <mxCell id="HB7L-xhzdcljNeKlnPmA-26" value="Read access" style="edgeLabel;html=1;align=center;verticalAlign=middle;resizable=0;points=[];" parent="HB7L-xhzdcljNeKlnPmA-25" vertex="1" connectable="0">
          <mxGeometry x="-0.0135" y="2" relative="1" as="geometry">
            <mxPoint as="offset" />
          </mxGeometry>
        </mxCell>
        <mxCell id="HB7L-xhzdcljNeKlnPmA-21" value="&lt;div&gt;Posit / Datalabs&lt;/div&gt;&lt;div&gt;(streamlit / fastapi)&lt;br&gt;&lt;/div&gt;" style="ellipse;shape=cloud;whiteSpace=wrap;html=1;" parent="1" vertex="1">
          <mxGeometry x="630" y="420" width="120" height="70" as="geometry" />
        </mxCell>
        <mxCell id="9WAs7ZXHk1DkFdnagY5z-1" value="&lt;div&gt;Object store API &lt;br&gt;&lt;/div&gt;&lt;div&gt;(python / fastapi) &lt;br&gt;&lt;/div&gt;" style="rounded=1;whiteSpace=wrap;html=1;fillColor=#CCFFCC;" vertex="1" parent="1">
          <mxGeometry x="510" y="150" width="130" height="40" as="geometry" />
        </mxCell>
      </root>
    </mxGraphModel>
  </diagram>
</mxfile>
